<svg id="Layer_1" data-name="Layer 1" xmlns="http://www.w3.org/2000/svg" viewBox="0 0 25 25"><defs><style>.cls-1{fill:#ab1f23;}.cls-2{fill:#fff;}</style></defs><title>Artboard 2</title><circle class="cls-1" cx="12.5" cy="12.5" r="10"/><path class="cls-2" d="M10.52,17.18A10.2,10.2,0,0,1,10.69,16l.45-3.07a3,3,0,0,0,.05-.53c0-.4-.18-.62-.88-.77l.1-.68c1.15-.2,2.57-.5,3.67-.82L13.14,16a6.85,6.85,0,0,0-.08.72c0,.35.17.6.5.6a1.54,1.54,0,0,0,.83-.3l.3.57A4.11,4.11,0,0,1,12,18.65,1.32,1.32,0,0,1,10.52,17.18Zm1.27-9.53a1.38,1.38,0,0,1,2.75,0,1.38,1.38,0,0,1-2.75,0Z"/></svg>