<svg id="Layer_1" data-name="Layer 1" xmlns="http://www.w3.org/2000/svg" viewBox="0 0 22.75 35.73"><defs><style>.cls-1{fill:#444;}</style></defs><title>Artboard 5</title><path class="cls-1" d="M5.34,4.07c-1.29.67-5.31,4.81-1,16.39,4.57,12.2,10.74,12.73,12.09,12.18l-3.12-8c-1.12.43-1.82-.7-3-3.11a30.7,30.7,0,0,1-2.24-5.77c-.4-1.5-.68-3,.49-3.46Z"/><path class="cls-1" d="M19.36,31.52a1,1,0,0,0,.54-1.24h0L17.47,24a1,1,0,0,0-1.23-.54L14,24.37l3.13,8,2.27-.88Z"/><path class="cls-1" d="M11.44,11.16A1,1,0,0,0,12,9.91h0L9.48,3.48a1,1,0,0,0-1.23-.54L6,3.82,9.17,12l2.27-.88Z"/></svg>